<?xml version="1.0" standalone="no"?>
<!DOCTYPE svg PUBLIC "-//W3C//DTD SVG 20010904//EN"
 "http://www.w3.org/TR/2001/REC-SVG-20010904/DTD/svg10.dtd">
<svg version="1.0" xmlns="http://www.w3.org/2000/svg"
 width="260.000000pt" height="260.000000pt" viewBox="0 0 260.000000 260.000000"
 preserveAspectRatio="xMidYMid meet">
<metadata>
Created by potrace 1.11, written by Peter Selinger 2001-2013
</metadata>
<g transform="translate(0.000000,260.000000) scale(0.100000,-0.100000)"
fill="#000000" stroke="none">
<path d="M262 2438 c6 -18 14 -37 18 -43 4 -5 25 -50 48 -100 22 -49 65 -143
96 -208 31 -65 56 -120 56 -122 0 -2 29 -65 65 -140 36 -75 65 -138 65 -140 0
-1 25 -55 55 -118 108 -227 116 -251 96 -272 -5 -6 -27 -50 -49 -100 -22 -49
-60 -133 -85 -185 -24 -52 -57 -122 -72 -155 -26 -58 -50 -109 -113 -245 -17
-36 -53 -114 -81 -175 -28 -60 -64 -137 -80 -170 -16 -33 -27 -63 -25 -67 6
-9 408 -11 441 -2 16 4 24 17 29 40 3 19 10 34 14 34 5 0 16 23 25 50 9 28 20
50 25 50 4 0 13 20 20 45 7 25 17 45 21 45 5 0 9 6 9 14 0 7 11 34 24 59 14
25 30 64 37 86 7 23 16 41 20 41 5 0 14 18 20 40 7 22 15 40 19 40 5 0 14 20
21 45 7 25 17 45 20 45 4 0 15 23 24 50 9 28 20 50 24 50 7 0 32 -51 52 -108
6 -18 14 -32 18 -32 4 0 13 -20 20 -45 7 -25 17 -45 21 -45 4 0 16 -27 26 -60
10 -33 21 -60 26 -60 4 0 8 -5 8 -10 0 -16 43 -104 54 -112 5 -3 41 -78 81
-165 l71 -158 237 -3 c186 -2 237 0 237 10 0 7 -11 36 -25 63 -13 28 -25 55
-25 62 0 6 -6 18 -12 25 -7 7 -22 39 -32 71 -11 31 -22 57 -26 57 -4 0 -13 20
-20 45 -7 25 -16 45 -20 45 -4 0 -13 18 -20 40 -7 22 -17 40 -22 40 -4 0 -8 7
-8 15 0 9 -13 44 -29 78 -16 34 -32 73 -36 87 -4 14 -11 27 -15 30 -7 5 -48
92 -70 150 -8 19 -17 37 -20 40 -3 3 -12 24 -18 48 -7 23 -17 42 -21 42 -5 0
-14 20 -21 45 -7 25 -17 45 -21 45 -5 0 -9 6 -9 13 0 6 -11 35 -24 64 -25 52
-25 52 -6 91 10 21 22 50 25 65 4 15 11 27 16 27 5 0 14 20 20 45 6 25 15 45
20 45 4 0 11 10 15 23 6 20 29 74 74 172 10 22 21 50 25 63 3 12 10 22 14 22
5 0 14 20 21 45 7 25 16 45 20 45 4 0 11 11 14 25 4 14 20 55 36 91 17 35 30
69 30 74 0 6 4 10 9 10 4 0 14 20 21 45 7 25 16 45 20 45 4 0 15 26 26 58 10
31 22 59 25 62 9 8 57 113 64 143 l7 27 -236 0 -237 0 -26 -57 c-14 -32 -43
-95 -64 -141 -22 -45 -39 -85 -39 -87 0 -3 -9 -14 -20 -25 -11 -11 -20 -29
-20 -40 0 -11 -4 -20 -10 -20 -5 0 -10 -5 -10 -10 0 -6 -9 -30 -21 -53 -11
-23 -27 -62 -36 -86 -8 -24 -21 -51 -29 -58 -7 -8 -16 -29 -20 -48 -3 -19 -10
-35 -14 -35 -5 0 -14 -16 -20 -36 -18 -53 -40 -93 -40 -71 0 9 -4 17 -8 17 -4
0 -14 17 -21 38 -7 20 -32 78 -56 127 -73 153 -95 203 -95 214 0 6 -4 11 -9
11 -4 0 -14 20 -21 45 -7 25 -16 45 -20 45 -4 0 -13 18 -20 40 -7 22 -16 40
-21 40 -4 0 -10 12 -14 28 -3 15 -21 57 -38 94 l-32 68 -227 0 -227 0 11 -32z"/>
</g>
</svg>
